Coordinates
datacolumns 6
datarows 77
range 0 0.76
inDegrees=yes
Units are S.I. units (second, meters, Newtons, ...)
If the header above contains a line with 'inDegrees', this indicates whether rotational values are in degrees (yes) or radians (no).
endheader
time	foot_tx	hip_flexion_r	knee_angle_r	ankle_angle_r	lumbar
0	0.17227664	53.53784507	-70.6485989	3.09344956	-24.71869039
0.01	0.17226741	53.57326744	-70.64290475	3.09209598	-24.81611822
0.02	0.17225996	53.61076153	-70.63691192	3.09080453	-24.91981522
0.03	0.17226683	53.67697701	-70.62947725	3.08581461	-25.00153553
0.04	0.17224258	53.69109973	-70.62400562	3.08937596	-25.14874306
0.05	0.17222924	53.73362119	-70.61655879	3.08924385	-25.27512916
0.06	0.17221403	53.78055436	-70.60892353	3.0895333	-25.40641316
0.07	0.17219336	53.83224095	-70.60054172	3.09013427	-25.5428555
0.08	0.17217277	53.89073104	-70.59149044	3.09058534	-25.68166224
0.09	0.17215999	53.98699918	-70.58065074	3.08700166	-25.79055537
0.1	0.17212115	54.03122452	-70.5693177	3.09067361	-25.96616452
0.11	0.17210246	54.14114037	-70.55665941	3.08764932	-26.08055776
0.12	0.17206709	54.203213	-70.54050337	3.08961873	-26.25801168
0.13	0.17204274	54.32407165	-70.52566085	3.0880801	-26.38094232
0.14	0.17200436	54.4030433	-70.50735824	3.09090356	-26.561972
0.15	0.17197593	54.53710286	-70.49048928	3.09041691	-26.69483498
0.16	0.17193288	54.63976979	-70.47153693	3.09364807	-26.87751122
0.17	0.17189278	54.79155333	-70.45553639	3.0948256	-27.02178973
0.18	0.17184661	54.95129265	-70.43974444	3.09654353	-27.17533434
0.19	0.17179327	55.12056052	-70.42505678	3.09944604	-27.33611669
0.2	0.17173437	55.29984069	-70.41149499	3.10388738	-27.50298678
0.21	0.17167159	55.48901071	-70.3989021	3.11019004	-27.67547118
0.22	0.17160875	55.68785818	-70.38700993	3.11844833	-27.85380807
0.23	0.17154471	55.89565572	-70.37615143	3.12913351	-28.03829867
0.24	0.1714813	56.11252576	-70.36604482	3.14210349	-28.22925865
0.25	0.17141737	56.33881347	-70.3567936	3.15739033	-28.42690589
0.26	0.17135302	56.57483633	-70.34827642	3.17480921	-28.63137989
0.27	0.17128666	56.84017113	-70.34278225	3.19394609	-28.82125088
0.28	0.17122347	57.09105657	-70.33446018	3.21499889	-29.04547101
0.29	0.17116039	57.35333021	-70.32596441	3.23723743	-29.27576497
0.3	0.17110196	57.62716199	-70.31658063	3.26023216	-29.51115119
0.31	0.17104302	57.91419179	-70.30622201	3.28415486	-29.74992287
0.32	0.17097551	58.25134683	-70.30182036	3.31073662	-29.94891453
0.33	0.17092397	58.54738977	-70.28887347	3.33888172	-30.20856546
0.34	0.17087299	58.85695015	-70.27308024	3.36774042	-30.47081341
0.35	0.17082123	59.21238721	-70.2604076	3.39818248	-30.69644627
0.36	0.17078283	59.53252211	-70.23976838	3.43064313	-30.97665373
0.37	0.17074168	59.89619552	-70.21947707	3.46321589	-31.22533025
0.38	0.17070702	60.23592044	-70.19244846	3.49787081	-31.5167933
0.39	0.17066831	60.63392536	-70.16725221	3.53267195	-31.75963876
0.4	0.17063565	61.02220933	-70.1359877	3.56900454	-32.02819163
0.41	0.17059372	61.43290263	-70.10442338	3.60799488	-32.28857804
0.42	0.17055489	61.87307128	-70.06961953	3.64599212	-32.53380607
0.43	0.17051158	62.34976916	-70.03296504	3.68354437	-32.75675992
0.44	0.17045749	62.85996608	-69.99560316	3.72272816	-32.95858717
0.45	0.17039999	63.39198683	-69.95460865	3.76374856	-33.14913012
0.46	0.17033536	63.93822034	-69.90996281	3.80873494	-33.33390524
0.47	0.17025814	64.48742801	-69.86341209	3.86088323	-33.52256865
0.48	0.17017522	65.03853403	-69.81303622	3.91916356	-33.71541946
0.49	0.17009217	65.5870549	-69.75828512	3.98327509	-33.91633635
0.5	0.17001117	66.13482869	-69.69898782	4.0529845	-34.12306889
0.51	0.1699382	66.68471477	-69.63493197	4.12747736	-34.33208306
0.52	0.16987834	67.24061916	-69.56643608	4.20652789	-34.53822454
0.53	0.16983676	67.80620087	-69.49423444	4.29035026	-34.73613359
0.54	0.16981557	68.38790357	-69.41928923	4.37948052	-34.91767339
0.55	0.16981874	68.98792577	-69.34229284	4.47434145	-35.07981054
0.56	0.16984436	69.61005703	-69.26441577	4.57543722	-35.21825599
0.57	0.16989426	70.25872902	-69.18490088	4.68245935	-35.32797645
0.58	0.16996995	70.93072689	-69.1017858	4.79482979	-35.41270417
0.59	0.17006862	71.62516313	-69.01244068	4.91190104	-35.47311675
0.6	0.17018206	72.3427033	-68.91482402	5.03352625	-35.50742667
0.61	0.17030445	73.07772731	-68.80585236	5.15966953	-35.51982807
0.62	0.17043581	73.82961253	-68.68087549	5.28828445	-35.50819954
0.63	0.17057401	74.59296836	-68.53886242	5.41998669	-35.4738341
0.64	0.17071865	75.36509978	-68.37691589	5.55382296	-35.4146078
0.65	0.17086662	76.13838647	-68.19557275	5.69094509	-35.33326994
0.66	0.17102153	76.90591158	-67.99381085	5.8311611	-35.2315511
0.67	0.17117334	77.66317389	-67.77601237	5.97727305	-35.10843594
0.68	0.17132155	78.4009576	-67.54370904	6.1302458	-34.96908679
0.69	0.17146282	79.11466119	-67.30069933	6.29173822	-34.8134765
0.7	0.17159836	79.79526961	-67.04982946	6.46271985	-34.64773756
0.71	0.17172846	80.43796912	-66.79382538	6.64375982	-34.47359584
0.72	0.17185016	81.03792917	-66.53538249	6.83556096	-34.29391092
0.73	0.1719653	81.59004324	-66.2766797	7.03823163	-34.11236473
0.74	0.17207122	82.08950868	-66.01985658	7.25179045	-33.9328319
0.75	0.17216857	82.53260015	-65.76632124	7.47541833	-33.75779419
0.76	0.17225369	82.91311433	-65.51803417	7.70897071	-33.5920542
